<?xml version="1.0" encoding="UTF-8"?>
<svg xmlns="http://www.w3.org/2000/svg" width="250px" height="250px" viewBox="0 0 250 250" version="1.1">
    <g>
        <rect x="0" y="0" width="250" height="250" style="fill:rgb(17.647059%,60.000002%,63.529414%);fill-opacity:1;stroke:none;"/>
        <path style="stroke:none;fill-rule:nonzero;fill:rgb(100%,100%,100%);fill-opacity:0.85098;" d="M 90.179688 171.425781 L 43.753906 171.425781 C 43.753906 154.015625 51.875 149.375 51.875 149.375 C 61.164062 147.054688 68.125 142.410156 75.089844 140.089844 L 76.25 140.089844 C 76.25 137.765625 78.574219 134.285156 78.574219 126.160156 C 73.929688 121.519531 69.289062 114.554688 69.289062 108.75 L 69.289062 94.820312 C 70.449219 85.535156 78.574219 78.574219 87.859375 78.574219 L 92.5 78.574219 C 102.945312 78.574219 109.910156 85.535156 109.910156 94.820312 L 109.910156 107.589844 C 108.75 118.035156 98.304688 128.480469 101.785156 125 C 101.785156 134.285156 102.945312 137.765625 104.109375 140.089844 C 106.429688 141.25 116.875 144.730469 119.195312 145.890625 L 125 171.425781 Z M 145.890625 140.089844 C 145.890625 137.765625 148.214844 134.285156 148.214844 126.160156 C 143.570312 121.519531 138.929688 114.554688 138.929688 108.75 L 138.929688 94.820312 C 140.089844 85.535156 148.214844 78.574219 157.5 78.574219 L 162.140625 78.574219 C 172.589844 78.574219 179.550781 85.535156 179.550781 94.820312 L 179.550781 107.589844 C 178.390625 116.875 167.945312 128.480469 171.425781 123.839844 C 171.425781 133.125 172.589844 136.605469 173.75 138.929688 C 179.550781 141.25 186.515625 144.730469 195.800781 148.214844 C 195.800781 148.214844 202.765625 151.695312 206.246094 170.265625 L 138.929688 170.265625 L 133.125 144.730469 C 133.125 144.730469 144.730469 140.089844 145.890625 140.089844 Z M 145.890625 140.089844 "/>
    </g>
</svg>
